<svg xmlns="http://www.w3.org/2000/svg" xmlns:xlink="http://www.w3.org/1999/xlink" viewBox="0 0 1000 410.9">
  <g fill="#fff">
    <path d="M925.2 287.8c-2.4.1-4.4-1.7-4.5-4.1V150.8h-45c-2.4.1-4.4-1.7-4.5-4.1V128c-.1-2.4 1.7-4.4 4.1-4.5h120.2c2.4-.1 4.4 1.7 4.5 4.1v18.7c.1 2.4-1.7 4.4-4.1 4.5h-45.4v132.5c.1 2.4-1.7 4.4-4.1 4.5h-21.2m-344.8-66.1l-23.6-67.8-23.8 67.8h47.4zm52.4 60.8c1 2.7-.6 5.4-3.5 5.4H608c-3.1 0-4.9-1.4-6-4.3l-12.1-34.9h-66.4l-12.1 34.9c-1 2.9-2.9 4.3-5.9 4.3h-20.1c-2.7 0-4.5-2.7-3.5-5.4l55.7-154.9c1-2.9 2.9-4.1 6-4.1H571c3.1 0 5.1 1.2 6.2 4.1l55.6 154.9m159.6-16.9c13.1 0 22-6.4 29.2-17.2l-33.3-35.8c-12.7 7.2-21 14.4-21 28.8.1 14.2 11.6 24.2 25.1 24.2m9.3-120.3c-10.7 0-16.8 6.8-16.8 15.8 0 7 3.7 13.1 12.1 22.2 14.6-8.4 20.8-13.6 20.8-22.6-.1-8.4-5.4-15.4-16.1-15.4m91 136.8c2.7 2.9 1 5.8-2.3 5.8h-26.1c-3.5 0-5.3-.8-7.6-3.5l-15.6-17.3c-10.5 14-25.1 24.4-49.3 24.4-30 0-53.6-18.1-53.6-49.1 0-23.8 12.7-36.6 32.1-47.2-9.5-10.9-13.8-22.4-13.8-32.5 0-25.5 17.9-42.9 44.8-42.9 27.5 0 44.4 16.2 44.4 40.3 0 20.5-14.8 32-30.4 40.7l23 24.9 12.9-22.6c1.6-2.7 3.5-3.7 6.8-3.7h19.9c3.3 0 5.1 2.3 3.1 5.7l-23 39.4 34.7 37.6m-205 5.7c2.4.1 4.4-1.7 4.5-4.1V150.8h45c2.4.1 4.4-1.7 4.5-4.1V128c.1-2.4-1.7-4.4-4.1-4.5H617.4c-2.4-.1-4.4 1.7-4.5 4.1v18.7c-.1 2.4 1.7 4.4 4.1 4.5h45.4v132.5c-.1 2.4 1.7 4.4 4.1 4.5h21.2z"/>
    <path d="M79.5 367.8c36 28 80.4 43.2 126 43.2 51.9 0 99.3-19.3 135.4-50.9.4-.4.2-.6-.2-.4-16.2 10.8-62.4 34.5-135.2 34.5-63.2 0-103.2-14.1-125.8-26.7-.4-.3-.5 0-.2.3m140 10.5c50.6 0 106.2-13.8 139.4-41.1 9.1-7.4 17.8-17.3 25.5-30.6 4.7-8.3 8.9-16.8 12.4-25.7.2-.4-.1-.6-.4-.1-30.9 45.5-120.4 73.9-212.9 73.9-65.3 0-135.6-20.9-163.2-60.8-.3-.4-.5-.2-.4.2 25.7 54.4 103.5 84.2 199.6 84.2m-55.3-90.5C59 287.8 9.4 238.8.4 205.4c-.1-.5-.4-.4-.4.1 0 11.3 1.1 25.8 3.1 35.4.9 4.7 4.7 12.1 10.3 17.9 25.5 26.6 89 63.8 199 63.8 149.9 0 184.1-49.9 191.1-66.3 5-11.7 7.6-33 7.6-50.8 0-4.3-.1-7.7-.3-11.1 0-.5-.3-.6-.4-.1-7.5 40.1-135.5 93.5-246.2 93.5M19.8 117.3c-6 12-12.7 32.2-14.7 42.6-.9 4.5-.5 6.6 1.1 10 12.6 26.8 76.4 69.6 225.2 69.6 90.8 0 161.3-22.3 172.7-63 2.1-7.5 2.2-15.4-.5-26.1-3-11.9-8.7-25.8-13.5-35.5-.1-.3-.4-.3-.4.1 1.8 53.4-147.1 87.8-222.2 87.8-81.3 0-149.2-32.4-149.2-73.3 0-3.9.8-7.9 1.8-12 .2-.4-.1-.5-.3-.2m321.5-65.5c.9 1.4 1.4 3.1 1.3 4.7 0 22.8-69.9 63.2-181.1 63.2-81.7 0-97-30.3-97-49.6 0-6.9 2.6-14 8.5-21.1.3-.4 0-.6-.3-.3-10.6 9-20.3 19.1-28.9 30.1-4.1 5.2-6.6 9.7-6.6 12.5 0 40 100.2 68.9 193.9 68.9 99.8 0 144.4-32.6 144.4-61.2 0-10.2-4-16.2-14.2-27.8-6.1-6.9-12.6-13.5-19.5-19.7-.5-.3-.7 0-.5.3M310.7 29C278.9 10 242.6-.1 205.6 0 166.7 0 129.9 10.9 99 29.8 89.7 35.5 84.5 40.1 84.5 46c0 17.3 40.5 36 112.4 36 71.1 0 126.3-20.4 126.3-40.1-.1-4.7-4.2-8-12.5-12.9"/>
  </g>
</svg>
